<svg width="18" height="18" viewBox="0 0 18 18" fill="none" xmlns="http://www.w3.org/2000/svg">
<path d="M13.071 1H5.17569C2.99546 1 1.22803 2.7757 1.22803 4.96613V12.8984C1.22803 15.0888 2.99546 16.8645 5.17569 16.8645H13.071C15.2513 16.8645 17.0187 15.0888 17.0187 12.8984V4.96613C17.0187 2.7757 15.2513 1 13.071 1Z" stroke="#262626" stroke-linecap="round" stroke-linejoin="round"/>
<path d="M12.2851 8.43306C12.3825 9.09322 12.2703 9.76743 11.9643 10.3598C11.6584 10.9522 11.1743 11.4326 10.5809 11.7326C9.98759 12.0326 9.31518 12.1371 8.65934 12.0311C8.0035 11.925 7.39764 11.6139 6.92793 11.142C6.45822 10.6701 6.14858 10.0614 6.04304 9.40255C5.93751 8.74365 6.04146 8.0681 6.34011 7.47197C6.63876 6.87585 7.1169 6.38952 7.70653 6.08215C8.29615 5.77478 8.96723 5.66202 9.62432 5.75991C10.2946 5.85976 10.9151 6.17354 11.3942 6.6549C11.8733 7.13626 12.1857 7.75968 12.2851 8.43306Z" stroke="#262626" stroke-linecap="round" stroke-linejoin="round"/>
<path d="M13.4668 4.56982H13.4763" stroke="#262626" stroke-linecap="round" stroke-linejoin="round"/>
</svg>
