<svg width="17" height="17" viewBox="0 0 17 17" fill="none" xmlns="http://www.w3.org/2000/svg">
<path d="M11.5863 5.75952C12.8427 5.75952 14.0476 6.26095 14.936 7.1535C15.8244 8.04606 16.3235 9.25662 16.3235 10.5189V16.0715H13.1654V10.5189C13.1654 10.0981 12.999 9.6946 12.7029 9.39709C12.4067 9.09957 12.0051 8.93242 11.5863 8.93242C11.1675 8.93242 10.7659 9.09957 10.4697 9.39709C10.1736 9.6946 10.0072 10.0981 10.0072 10.5189V16.0715H6.84912V10.5189C6.84912 9.25662 7.34822 8.04606 8.23661 7.1535C9.125 6.26095 10.3299 5.75952 11.5863 5.75952V5.75952Z" stroke="#262626" stroke-linecap="round" stroke-linejoin="round"/>
<path d="M3.69225 6.55273H0.53418V16.0715H3.69225V6.55273Z" stroke="#262626" stroke-linecap="round" stroke-linejoin="round"/>
<path d="M2.11322 4.17292C2.98529 4.17292 3.69225 3.46264 3.69225 2.58646C3.69225 1.71028 2.98529 1 2.11322 1C1.24114 1 0.53418 1.71028 0.53418 2.58646C0.53418 3.46264 1.24114 4.17292 2.11322 4.17292Z" stroke="#262626" stroke-linecap="round" stroke-linejoin="round"/>
</svg>
