<svg width="20" height="17" viewBox="0 0 20 17" fill="none" xmlns="http://www.w3.org/2000/svg">
<path d="M19.0206 1.00862C18.2515 1.58777 17.3999 2.03073 16.4987 2.32043C16.015 1.7267 15.3722 1.30587 14.6571 1.11488C13.9421 0.923877 13.1894 0.971922 12.5008 1.25251C11.8121 1.5331 11.2209 2.03269 10.8069 2.68372C10.3929 3.33476 10.1762 4.10581 10.1861 4.89261V5.75C8.77466 5.78907 7.37611 5.4549 6.11497 4.77725C4.85383 4.09959 3.76926 3.09949 2.95783 1.86601C2.95783 1.86601 -0.25471 9.58255 6.97352 13.0121C5.31948 14.2107 3.34909 14.8117 1.35156 14.7269C8.57979 19.0139 17.4143 14.7269 17.4143 4.86689C17.4135 4.62807 17.392 4.38983 17.35 4.15525C18.1697 3.29228 18.7482 2.20272 19.0206 1.00862V1.00862Z" stroke="#262626" stroke-linecap="round" stroke-linejoin="round"/>
</svg>
