<svg width="19" height="18" viewBox="0 0 19 18" fill="none" xmlns="http://www.w3.org/2000/svg">
<path d="M18.07 3.48332C17.9762 2.99631 17.7852 2.5501 17.5162 2.18974C17.2473 1.82939 16.91 1.56766 16.5383 1.43099C15.1803 1 9.7483 1 9.7483 1C9.7483 1 4.31632 1 2.95832 1.47204C2.58664 1.60871 2.2493 1.87044 1.98036 2.23079C1.71142 2.59114 1.52041 3.03736 1.42662 3.52437C1.17809 5.3156 1.05652 7.13269 1.06344 8.95279C1.05458 10.7866 1.17616 12.6175 1.42662 14.4223C1.53002 14.8941 1.72531 15.3234 1.99362 15.6685C2.26194 16.0136 2.5942 16.263 2.95832 16.3925C4.31632 16.8645 9.7483 16.8645 9.7483 16.8645C9.7483 16.8645 15.1803 16.8645 16.5383 16.3925C16.91 16.2558 17.2473 15.9941 17.5162 15.6337C17.7852 15.2734 17.9762 14.8272 18.07 14.3402C18.3166 12.5624 18.4382 10.7592 18.4332 8.95279C18.442 7.11898 18.3204 5.28804 18.07 3.48332V3.48332Z" stroke="#262626" stroke-linecap="round" stroke-linejoin="round"/>
<path d="M7.97656 12.3081L12.5163 8.95249L7.97656 5.59692V12.3081Z" stroke="#262626" stroke-linecap="round" stroke-linejoin="round"/>
</svg>
